<?xml version="1.0" standalone="no"?>
<!DOCTYPE svg PUBLIC "-//W3C//DTD SVG 20010904//EN"
 "http://www.w3.org/TR/2001/REC-SVG-20010904/DTD/svg10.dtd">
<svg version="1.0" xmlns="http://www.w3.org/2000/svg"
 width="715.000000pt" height="505.000000pt" viewBox="0 0 715.000000 505.000000"
 preserveAspectRatio="xMidYMid meet">

<g transform="translate(0.000000,505.000000) scale(0.100000,-0.100000)"
fill="#000000" stroke="none">
<path d="M1570 4616 l0 -146 38 0 c121 0 389 -55 527 -108 99 -39 193 -80 241
-107 27 -15 87 -49 134 -75 81 -45 341 -206 460 -284 30 -20 58 -36 62 -36 4
0 9 15 11 33 2 17 4 -42 5 -133 l2 -165 137 -132 138 -131 6 131 c4 73 7 387
8 699 l1 567 -140 -72 -140 -72 -1 -195 c-2 -190 -14 -471 -17 -399 -2 34 -10
42 -109 118 -60 45 -121 92 -138 105 -454 355 -807 526 -1122 543 l-103 6 0
-147z"/>
<path d="M1483 4705 c-23 -16 -40 -35 -38 -42 2 -7 -2 -10 -8 -7 -7 2 -26 -6
-42 -20 -17 -13 -66 -52 -110 -85 -44 -34 -128 -98 -187 -143 l-108 -83 0
-103 c0 -80 3 -101 13 -96 18 11 252 164 392 255 66 43 123 80 127 81 5 2 7
64 6 139 l-3 135 -42 -31z"/>
<path d="M3386 4714 c-3 -8 -6 -321 -6 -697 0 -375 -3 -692 -6 -704 -6 -23 1
-33 191 -231 39 -40 72 -77 73 -83 2 -5 8 -9 13 -9 5 0 9 36 9 80 0 44 -4 80
-10 80 -10 0 -221 162 -239 184 -8 10 -9 16 -1 21 8 5 84 -47 110 -75 3 -3 21
-17 40 -30 19 -13 37 -27 40 -30 3 -3 18 -16 33 -29 l27 -24 0 33 c0 18 -3 30
-6 27 -8 -8 -39 14 -161 111 -89 69 -108 92 -80 92 11 0 152 -106 220 -166
l27 -24 0 22 c0 18 -29 45 -116 113 -143 111 -148 115 -136 127 6 6 52 -23
126 -81 74 -59 118 -87 122 -79 8 12 4 16 -150 136 -58 45 -106 89 -106 97 0
23 8 19 84 -42 138 -111 154 -123 165 -123 13 0 14 11 3 25 -4 6 -60 50 -125
99 -111 83 -137 109 -124 122 3 3 59 -35 124 -86 93 -72 119 -88 122 -74 2 10
-7 25 -21 35 -84 62 -228 181 -228 189 0 19 27 10 66 -23 62 -52 173 -137 179
-137 3 0 5 6 5 14 0 8 -56 56 -124 108 -75 55 -125 100 -125 111 -1 9 1 17 4
17 3 0 51 -35 106 -77 145 -113 139 -109 139 -87 -1 11 -24 35 -57 59 -31 22
-61 45 -67 50 -6 6 -37 30 -68 54 -35 26 -58 51 -58 62 0 15 19 4 88 -49 147
-114 162 -123 162 -99 0 7 -56 55 -125 107 -76 59 -124 102 -125 113 0 23 1
22 132 -80 58 -46 109 -83 112 -83 3 0 6 7 6 15 0 12 -64 66 -206 173 -38 27
-58 62 -38 62 4 0 60 -41 125 -91 87 -66 119 -85 119 -72 0 10 -13 27 -29 38
-119 83 -221 170 -221 187 0 15 3 18 13 11 6 -6 44 -34 82 -63 39 -30 86 -66
105 -82 38 -31 50 -35 50 -15 0 6 -53 53 -117 102 -130 100 -143 112 -143 127
0 17 24 3 139 -86 61 -47 113 -86 116 -86 3 0 5 6 5 14 0 8 -56 58 -124 110
-116 91 -145 120 -128 130 4 2 58 -36 120 -85 110 -86 132 -99 132 -80 0 14
-15 26 -138 121 -61 47 -114 90 -116 97 -14 33 22 15 127 -66 63 -49 118 -87
120 -84 13 12 -11 37 -101 105 -130 98 -142 109 -142 130 0 13 24 -1 98 -57
53 -42 105 -82 115 -90 9 -8 19 -15 22 -15 3 0 5 67 5 149 l0 150 -124 100
c-89 71 -126 95 -130 85z"/>
<path d="M3883 4383 l-103 -54 0 -129 0 -130 -40 -26 -40 -27 0 -563 0 -564
-28 0 c-25 0 -90 63 -447 425 -308 313 -421 423 -430 415 -9 -7 -46 7 -131 49
-297 149 -506 230 -714 276 -100 23 -272 45 -346 45 l-34 0 0 -145 0 -145 73
0 c134 -1 389 -43 572 -96 50 -14 158 -50 241 -80 83 -30 159 -54 169 -54 18
0 18 -1 -2 -22 -21 -21 -24 -21 -60 -6 -282 118 -613 199 -881 214 l-113 7 3
-144 3 -144 130 -7 c161 -9 384 -40 535 -76 63 -14 134 -27 157 -27 l42 0 -31
-32 c-26 -27 -33 -30 -42 -18 -26 33 -539 115 -721 115 l-75 0 0 -143 0 -144
183 -6 c170 -7 393 -29 405 -42 3 -3 -1 -12 -9 -19 -12 -11 -33 -11 -129 0
-63 7 -191 16 -283 20 l-168 7 3 -144 c2 -106 6 -144 16 -145 6 -1 76 -2 155
-3 l142 -2 -24 -19 c-20 -18 -39 -20 -157 -20 l-134 0 0 -25 c0 -31 -29 -34
-37 -5 -6 23 -25 25 -135 11 -40 -6 -148 -18 -240 -27 l-167 -17 -3 -81 -3
-80 -110 -56 c-311 -158 -459 -335 -442 -527 8 -82 39 -143 111 -221 84 -90
204 -173 336 -234 19 -9 60 -27 90 -41 30 -14 84 -35 120 -47 35 -12 72 -26
81 -30 14 -8 152 -40 172 -40 4 0 7 6 7 14 0 9 8 13 23 11 43 -7 183 -39 286
-65 24 -6 49 -9 55 -7 6 2 -50 23 -124 46 -185 58 -458 176 -468 202 -2 5 -8
9 -14 9 -17 0 -143 97 -182 140 -83 92 -115 203 -84 291 14 40 66 115 100 144
36 31 130 99 155 112 112 58 146 75 198 98 130 59 500 168 660 195 285 50 383
64 590 85 595 62 1172 57 1810 -16 101 -11 359 -54 620 -103 97 -19 108 -19
99 -5 -9 15 85 7 159 -14 180 -52 -4 33 -269 123 -122 42 -377 108 -521 135
l-93 17 0 409 c0 325 -3 410 -13 421 -8 7 -63 46 -124 87 l-111 73 -7 249 -7
249 -35 -21 c-50 -31 -50 -31 -52 106 0 52 -4 94 -8 94 -5 -1 -54 -26 -110
-56z m104 -135 c-2 -29 -3 -6 -3 52 0 58 1 81 3 53 2 -29 2 -77 0 -105z m-27
34 c0 -48 -5 -94 -10 -102 -7 -10 -10 20 -10 93 0 70 4 106 10 102 6 -3 10
-45 10 -93z m-40 -22 c0 -60 -4 -100 -10 -100 -6 0 -10 40 -10 100 0 60 4 100
10 100 6 0 10 -40 10 -100z m-42 -27 l-2 -108 -5 85 c-3 47 -4 95 -2 108 8 48
11 17 9 -85z m-38 -112 c-6 -11 -9 21 -8 94 l1 110 8 -94 c5 -57 5 -100 -1
-110z m-30 63 c0 -68 -4 -103 -10 -99 -6 3 -10 52 -10 111 0 68 4 103 10 99 6
-3 10 -52 10 -111z m263 -431 c10 -629 9 -923 -3 -923 -6 0 -10 108 -10 303 0
167 -3 473 -7 680 -4 249 -3 377 4 377 6 0 12 -157 16 -437z m-33 -255 c0
-418 -4 -668 -9 -663 -7 7 -18 1265 -12 1328 1 4 6 7 11 7 7 0 10 -231 10
-672z m-38 14 c2 -351 2 -646 0 -655 -2 -10 -8 -15 -13 -12 -13 8 -12 1305 1
1305 6 0 11 -227 12 -638z m-39 -19 c4 -350 5 -639 2 -641 -3 -3 -8 -2 -11 1
-11 11 -18 1277 -7 1277 6 0 12 -232 16 -637z m-34 -45 c1 -386 -2 -588 -9
-588 -6 0 -11 145 -12 413 0 226 -2 500 -4 607 -3 202 3 270 17 195 4 -22 8
-304 8 -627z m-39 27 c0 -397 -3 -615 -10 -615 -9 0 -20 1194 -12 1220 18 53
22 -62 22 -605z m-40 -10 c0 -390 -3 -595 -10 -595 -7 0 -10 205 -10 595 0
390 3 595 10 595 7 0 10 -205 10 -595z m-40 388 c0 -104 3 -367 6 -587 5 -329
3 -397 -8 -394 -17 6 -27 1168 -9 1168 8 0 11 -57 11 -187z m-31 -455 c1 -352
-2 -518 -9 -518 -7 0 -10 102 -10 308 0 169 -3 418 -7 554 -3 135 -2 255 2
265 17 37 22 -97 24 -609z m-39 36 c0 -353 -4 -554 -10 -554 -9 0 -20 1077
-11 1107 1 7 7 10 12 7 5 -3 9 -244 9 -560z m401 -144 c1 -236 2 -439 2 -450
1 -11 -3 -21 -8 -22 -6 -2 -11 163 -13 450 -1 299 1 452 8 452 7 0 10 -148 11
-430z m39 -41 c0 -286 -3 -439 -10 -439 -7 0 -10 155 -10 446 0 294 3 443 10
439 6 -4 10 -163 10 -446z m40 -14 c0 -283 -3 -435 -10 -435 -7 0 -10 152 -10
435 0 283 3 435 10 435 7 0 10 -152 10 -435z m-1510 412 c0 -2 -10 -12 -21
-23 -22 -19 -22 -19 -8 4 12 19 29 30 29 19z m1550 -427 c0 -262 -4 -421 -10
-425 -9 -6 -20 812 -11 842 1 7 7 10 12 7 5 -3 9 -188 9 -424z m-1101 67 c185
-187 344 -347 354 -356 9 -8 17 -18 17 -21 0 -3 -121 -4 -268 -2 -152 3 -334
-1 -418 -7 -175 -13 -642 -63 -734 -78 -64 -10 -19 15 65 36 246 61 617 102
947 104 l248 2 -283 283 c-155 155 -287 281 -294 280 -7 -2 -110 -97 -230
-213 -120 -115 -277 -266 -349 -335 -72 -69 -134 -132 -138 -141 -6 -15 -82
-36 -92 -26 -8 7 820 826 830 820 5 -4 161 -159 345 -346z m1134 319 c9 -23 7
-800 -2 -814 -18 -29 -21 46 -21 433 1 354 6 427 23 381z m37 -422 c0 -274 -3
-413 -10 -409 -6 4 -10 153 -10 416 0 266 3 409 10 409 7 0 10 -145 10 -416z
m-1770 312 c0 -2 -8 -10 -17 -17 -16 -13 -17 -12 -4 4 13 16 21 21 21 13z
m316 -188 c151 -75 76 -314 -92 -295 -122 13 -184 155 -111 250 51 67 127 84
203 45z m-936 -432 c0 -3 -4 -8 -10 -11 -5 -3 -10 -1 -10 4 0 6 5 11 10 11 6
0 10 -2 10 -4z"/>
<path d="M1570 4288 l0 -145 108 -6 c201 -12 473 -82 712 -185 93 -39 418
-201 570 -282 30 -16 61 -30 68 -30 9 0 12 23 12 83 l0 82 -62 40 c-35 22 -88
55 -118 73 -30 19 -56 38 -58 43 -2 5 -7 9 -12 9 -4 0 -73 40 -151 88 -382
236 -674 346 -976 368 l-93 7 0 -145z"/>
<path d="M1520 4411 c0 -4 -28 -25 -62 -46 -35 -22 -154 -99 -265 -172 l-203
-134 0 -104 c0 -58 2 -105 4 -105 2 0 70 37 152 81 82 45 174 95 204 111 30
17 83 46 118 65 l62 35 0 139 c0 76 -2 139 -5 139 -3 0 -5 -4 -5 -9z"/>
<path d="M1500 4071 c-14 -11 -74 -45 -135 -76 -60 -31 -135 -71 -165 -89 -30
-18 -73 -42 -95 -54 -22 -11 -57 -30 -77 -42 l-38 -20 0 -106 c0 -120 -8 -115
100 -67 30 14 69 30 85 38 63 27 202 89 255 112 30 14 65 29 78 34 21 8 22 13
22 149 0 77 -1 140 -2 140 -2 0 -14 -9 -28 -19z"/>
<path d="M1465 3731 c-22 -10 -94 -42 -160 -71 -66 -29 -159 -70 -208 -91 -48
-22 -92 -39 -97 -39 -6 0 -10 -43 -10 -110 0 -63 4 -110 10 -110 5 0 126 39
270 86 l260 86 0 124 c0 68 0 127 1 132 1 14 -26 11 -66 -7z"/>
<path d="M1300 3355 c-124 -40 -243 -80 -265 -88 l-40 -14 -2 -108 -1 -107 46
7 c26 3 83 15 127 26 44 10 100 23 125 28 25 5 89 19 143 31 l97 22 0 139 c0
77 -1 139 -2 138 -2 0 -104 -33 -228 -74z"/>
<path d="M1485 3093 c-11 -3 -92 -20 -180 -39 -88 -19 -195 -43 -238 -52 l-78
-17 2 -109 1 -108 92 6 c50 4 118 11 151 16 33 5 113 14 178 21 l117 11 0 139
c0 145 1 143 -45 132z"/>
<path d="M1377 2204 c-3 -4 -6 -157 -7 -340 l0 -334 204 0 c112 0 218 3 236 7
19 3 51 24 75 47 49 47 64 106 45 175 -12 45 -67 98 -121 117 l-34 11 43 18
c59 24 97 87 89 152 -9 84 -60 126 -173 143 -75 11 -347 14 -357 4z m315 -84
c13 -17 18 -40 18 -92 0 -60 -3 -72 -25 -93 -18 -19 -35 -25 -70 -25 l-45 0 0
113 c0 63 3 117 8 121 15 16 96 -1 114 -24z m8 -298 c54 -54 50 -182 -7 -219
-14 -9 -46 -17 -72 -17 l-46 -1 -3 133 -3 132 51 0 c43 0 56 -5 80 -28z"/>
<path d="M2017 2203 c-4 -3 -7 -156 -7 -340 l0 -333 100 0 100 0 0 340 0 340
-93 0 c-52 0 -97 -3 -100 -7z"/>
<path d="M2328 2203 c-2 -4 -2 -158 0 -340 l3 -333 29 0 30 0 1 228 c1 261 -5
264 80 -35 l54 -193 57 0 56 0 14 48 c8 26 37 128 64 227 l49 180 3 -228 2
-227 95 0 95 0 0 340 0 340 -99 0 c-86 0 -100 -2 -105 -17 -3 -10 -28 -99 -56
-198 -28 -98 -53 -181 -56 -184 -3 -3 -7 4 -10 14 -3 11 -29 101 -57 200 l-52
180 -97 3 c-53 1 -98 -1 -100 -5z"/>
<path d="M3150 1992 c-71 -35 -98 -116 -64 -189 21 -42 51 -63 107 -74 52 -9
137 7 137 27 0 10 -6 11 -26 4 -115 -44 -212 63 -159 175 18 36 51 55 96 55
41 0 69 -17 69 -40 0 -11 5 -20 10 -20 6 0 10 15 10 34 0 30 -4 34 -31 40 -55
11 -113 6 -149 -12z"/>
<path d="M3441 1992 c-53 -26 -74 -62 -74 -124 0 -93 51 -141 149 -140 97 1
154 54 154 145 0 60 -22 99 -67 121 -44 21 -119 20 -162 -2z m141 -32 c29 -29
30 -34 26 -100 -5 -86 -23 -110 -83 -110 -72 0 -104 54 -92 156 9 85 89 113
149 54z"/>
<path d="M3700 2001 c0 -5 9 -11 20 -14 19 -5 20 -14 20 -120 0 -110 -1 -115
-22 -122 -22 -8 -22 -8 5 -12 15 -2 39 -2 55 0 26 4 26 4 5 12 -22 7 -23 13
-23 103 0 53 4 92 8 87 5 -6 48 -56 96 -112 48 -57 94 -103 102 -103 11 0 14
24 14 135 0 113 2 135 15 135 8 0 15 4 15 9 0 5 -20 9 -45 9 -47 -1 -60 -12
-25 -21 18 -5 20 -13 20 -94 l0 -88 -43 45 c-23 25 -63 70 -88 100 -41 48 -52
55 -88 58 -23 1 -41 -2 -41 -7z"/>
<path d="M4105 2000 c-35 -13 -46 -36 -43 -81 3 -48 22 -63 91 -74 80 -13 68
-95 -13 -95 -37 0 -70 23 -70 50 0 25 -13 1 -15 -29 -2 -26 1 -30 40 -41 77
-22 148 12 161 77 11 57 -7 72 -118 97 -34 8 -46 41 -22 67 30 34 104 18 104
-22 0 -11 5 -17 10 -14 6 3 10 19 10 34 0 21 -6 30 -22 35 -32 8 -89 6 -113
-4z"/>
<path d="M4290 1972 c0 -20 4 -31 10 -27 6 3 10 13 10 21 0 10 12 14 41 14
l41 0 -4 -110 c-3 -95 -6 -111 -23 -124 -18 -14 -15 -15 48 -16 43 0 66 4 62
10 -3 6 -13 10 -21 10 -11 0 -14 22 -14 115 l0 115 40 0 c33 0 40 -3 40 -20 0
-11 5 -20 10 -20 6 0 10 15 10 33 l0 32 -125 0 -125 0 0 -33z"/>
<path d="M4564 1999 c-3 -5 1 -9 10 -9 34 0 32 -229 -2 -250 -12 -7 3 -9 53
-9 67 0 69 1 48 16 -21 14 -23 23 -23 124 l0 109 35 0 c24 0 37 -6 45 -19 14
-28 -4 -69 -35 -81 l-25 -10 43 -67 c42 -66 45 -68 88 -71 44 -3 44 -3 23 16
-11 10 -35 43 -54 72 l-34 53 27 19 c31 22 37 77 12 98 -17 14 -203 22 -211 9z"/>
<path d="M4860 2001 c0 -5 7 -11 15 -15 12 -4 15 -26 15 -110 0 -100 1 -105
26 -125 36 -29 104 -37 142 -17 53 27 62 50 62 154 0 73 3 94 15 98 29 12 14
21 -27 18 -56 -3 -57 -4 -32 -14 15 -6 20 -16 18 -37 -1 -15 -2 -58 -3 -95 -1
-79 -15 -98 -71 -98 -61 0 -70 16 -70 131 0 86 2 99 17 99 9 0 13 3 9 7 -10
10 -116 14 -116 4z"/>
<path d="M5255 1991 c-23 -10 -49 -30 -58 -45 -23 -34 -24 -103 -3 -145 33
-62 125 -94 200 -69 50 17 63 41 14 27 -62 -17 -94 -11 -132 25 -33 30 -36 38
-36 87 0 71 28 108 87 116 46 6 93 -15 93 -42 0 -8 5 -15 10 -15 6 0 10 15 10
34 0 30 -4 34 -31 40 -55 11 -113 6 -154 -13z"/>
<path d="M5464 2001 c-2 -2 -4 -17 -4 -33 0 -32 15 -38 23 -8 4 15 14 20 41
20 l36 0 0 -113 c0 -108 -1 -114 -22 -125 -19 -9 -10 -11 50 -11 46 -1 71 3
67 9 -3 6 -13 10 -21 10 -11 0 -14 22 -14 115 l0 115 40 0 c33 0 40 -3 40 -20
0 -11 5 -20 11 -20 6 0 9 14 7 33 l-3 32 -123 0 c-68 0 -126 -2 -128 -4z"/>
<path d="M5750 1999 c0 -4 7 -9 15 -13 12 -4 15 -27 15 -114 0 -102 -2 -111
-22 -125 -22 -15 -20 -16 46 -16 l70 -1 -22 20 c-20 19 -22 31 -22 115 0 104
5 125 28 125 8 0 12 3 8 8 -9 9 -116 10 -116 1z"/>
<path d="M5981 1992 c-54 -27 -76 -65 -76 -127 0 -91 54 -140 152 -137 74 2
106 20 137 79 36 70 7 161 -59 189 -46 19 -113 18 -154 -4z m121 -13 c40 -22
61 -115 38 -175 -15 -38 -38 -53 -83 -54 -67 0 -109 70 -92 156 12 69 79 104
137 73z"/>
<path d="M6240 2001 c0 -5 9 -11 20 -14 18 -5 20 -14 20 -115 0 -103 -2 -112
-22 -126 -21 -15 -20 -16 32 -15 47 0 52 2 33 11 -21 10 -23 18 -23 100 0 48
3 88 8 88 4 0 17 -15 30 -33 46 -66 158 -181 170 -173 8 5 12 47 12 137 0 108
2 129 15 129 8 0 15 4 15 9 0 11 -76 9 -87 -2 -3 -4 1 -7 9 -7 9 0 18 -10 22
-22 8 -33 7 -146 -1 -151 -5 -3 -45 39 -90 92 -76 90 -84 96 -122 99 -23 1
-41 -2 -41 -7z"/>
<path d="M3068 1484 c-3 -3 -4 -14 -1 -25 5 -19 32 -19 1884 -19 l1879 0 -4
23 -3 22 -1875 3 c-1031 1 -1877 0 -1880 -4z"/>
</g>
</svg>
